<?xml version="1.0" encoding="UTF-8" standalone="no" ?>
<!DOCTYPE svg PUBLIC "-//W3C//DTD SVG 1.1//EN" "http://www.w3.org/Graphics/SVG/1.1/DTD/svg11.dtd">
<svg xmlns="http://www.w3.org/2000/svg" xmlns:xlink="http://www.w3.org/1999/xlink" version="1.1" width="1080" height="1080" viewBox="0 0 1080 1080" xml:space="preserve">
<desc>Created with Fabric.js 5.2.4</desc>
<defs>
</defs>
<g transform="matrix(1 0 0 1 540 540)" id="56c14dd4-0230-4867-8fcb-c77a1f1411a9"  >
<rect style="stroke: none; stroke-width: 1; stroke-dasharray: none; stroke-linecap: butt; stroke-dashoffset: 0; stroke-linejoin: miter; stroke-miterlimit: 4; fill: rgb(255,255,255); fill-rule: nonzero; opacity: 1; visibility: hidden;" vector-effect="non-scaling-stroke"  x="-540" y="-540" rx="0" ry="0" width="1080" height="1080" />
</g>
<g transform="matrix(1 0 0 1 540 540)" id="5afd960d-bd56-41ae-8da3-87046d588298"  >
</g>
<g transform="matrix(NaN NaN NaN NaN 0 0)"  >
<g style=""   >
</g>
</g>
<g transform="matrix(NaN NaN NaN NaN 0 0)"  >
<g style=""   >
</g>
</g>
<g transform="matrix(7.15 0 0 7.15 118.72 540)" clip-path="url(#CLIPPATH_5)"  >
<clipPath id="CLIPPATH_5" >
	<rect transform="matrix(1 0 0 1 61.5 0)" id="clip0_1_2" x="-75.5" y="-14" rx="0" ry="0" width="151" height="28" />
</clipPath>
<path style="stroke: none; stroke-width: 1; stroke-dasharray: none; stroke-linecap: butt; stroke-dashoffset: 0; stroke-linejoin: miter; stroke-miterlimit: 4; fill: rgb(255,101,28); fill-rule: nonzero; opacity: 1;" vector-effect="non-scaling-stroke"  transform=" translate(-14, -14)" d="M 14.14 19.635 C 14.14 19.789 14.259 19.915 14.4025 19.915 L 20.8775 19.915 C 21.021 19.915 21.14 19.789 21.14 19.635 L 21.14 17.955 C 21.14 17.801 21.021 17.675 20.8775 17.675 L 14.4025 17.675 C 14.259 17.675 14.14 17.801 14.14 17.955 L 14.14 19.635 Z M 7.3185 19.8485 L 14.0385 14.2135 C 14.1715 14.1015 14.1715 13.895 14.0385 13.783 L 7.3185 8.1515 C 7.27793 8.117 7.22832 8.09487 7.17555 8.08773 C 7.12278 8.08059 7.06906 8.08875 7.02079 8.11123 C 6.97251 8.13371 6.9317 8.16957 6.9032 8.21455 C 6.8747 8.25953 6.85971 8.31175 6.86 8.365 L 6.86 10.5595 C 6.86 10.6435 6.895 10.7205 6.9615 10.773 L 10.8045 14 L 6.9615 17.227 C 6.93022 17.2532 6.90495 17.2858 6.88743 17.3227 C 6.86992 17.3595 6.86056 17.3997 6.86 17.4405 L 6.86 19.635 C 6.86 19.873 7.1365 20.0025 7.3185 19.8485 Z M 26.88 0 L 1.12 0 C 0.5005 0 0 0.5005 0 1.12 L 0 26.88 C 0 27.4995 0.5005 28 1.12 28 L 26.88 28 C 27.4995 28 28 27.4995 28 26.88 L 28 1.12 C 28 0.5005 27.4995 0 26.88 0 Z M 25.48 25.48 L 2.52 25.48 L 2.52 2.52 L 25.48 2.52 L 25.48 25.48 Z" stroke-linecap="round" />
</g>
<g transform="matrix(1 0 0 2.8 322.55 540)" style="" id="f8677a1e-cb88-40e5-b991-71c3db6dc93f"  >
		<text xml:space="preserve" font-family="Raleway" font-size="105" font-style="normal" font-weight="900" style="stroke: none; stroke-width: 1; stroke-dasharray: none; stroke-linecap: butt; stroke-dashoffset: 0; stroke-linejoin: miter; stroke-miterlimit: 4; fill: rgb(0,0,0); fill-opacity: 0.82; fill-rule: nonzero; opacity: 1; white-space: pre;" ><tspan x="-71.24" y="32.98" >AK</tspan></text>
</g>
</svg>